<svg width="16" height="16" viewBox="0 0 16 16" fill="none" xmlns="http://www.w3.org/2000/svg">
<path d="M14.6467 12.22C14.6467 12.46 14.5933 12.7066 14.48 12.9466C14.3667 13.1866 14.22 13.4133 14.0267 13.6266C13.7 13.9866 13.34 14.2466 12.9333 14.4133C12.5333 14.58 12.1 14.6666 11.6333 14.6666C10.9533 14.6666 10.2267 14.5066 9.45999 14.18C8.69333 13.8533 7.92666 13.4133 7.16666 12.86C6.4 12.3 5.67333 11.68 4.97999 10.9933C4.29333 10.3 3.67333 9.57331 3.11999 8.81331C2.57333 8.05331 2.13333 7.29331 1.81333 6.53998C1.49333 5.77998 1.33333 5.05331 1.33333 4.35998C1.33333 3.90665 1.41333 3.47331 1.57333 3.07331C1.73333 2.66665 1.98666 2.29331 2.33999 1.95998C2.76666 1.53998 3.23333 1.33331 3.72666 1.33331C3.91333 1.33331 4.1 1.37331 4.26666 1.45331C4.44 1.53331 4.59333 1.65331 4.71333 1.82665L6.26 4.00665C6.38 4.17331 6.46666 4.32665 6.52666 4.47331C6.58666 4.61331 6.62 4.75331 6.62 4.87998C6.62 5.03998 6.57333 5.19998 6.48 5.35331C6.39333 5.50665 6.26666 5.66665 6.10666 5.82665L5.59999 6.35331C5.52666 6.42665 5.49333 6.51331 5.49333 6.61998C5.49333 6.67331 5.5 6.71998 5.51333 6.77331C5.53333 6.82665 5.55333 6.86665 5.56666 6.90665C5.68666 7.12665 5.89333 7.41331 6.18666 7.75998C6.48666 8.10665 6.80666 8.45998 7.15333 8.81331C7.51333 9.16665 7.85999 9.49331 8.21333 9.79331C8.55999 10.0866 8.84666 10.2866 9.07333 10.4066C9.10666 10.42 9.14666 10.44 9.19333 10.46C9.24666 10.48 9.3 10.4866 9.36 10.4866C9.47333 10.4866 9.56 10.4466 9.63333 10.3733L10.14 9.87331C10.3067 9.70665 10.4667 9.57998 10.62 9.49998C10.7733 9.40665 10.9267 9.35998 11.0933 9.35998C11.22 9.35998 11.3533 9.38665 11.5 9.44665C11.6467 9.50665 11.8 9.59331 11.9667 9.70665L14.1733 11.2733C14.3467 11.3933 14.4667 11.5333 14.54 11.7C14.6067 11.8666 14.6467 12.0333 14.6467 12.22Z" stroke="#00B3F0" stroke-width="1.5" stroke-miterlimit="10"/>
</svg>
