<svg width="16" height="16" viewBox="0 0 16 16" fill="none" xmlns="http://www.w3.org/2000/svg">
<path d="M13.5866 14.0867C13.4533 14.0867 13.3266 14.0334 13.2333 13.94L8.97996 9.68669C8.78663 9.49336 8.78663 9.17336 8.97996 8.98002L14.1333 3.82669C14.26 3.70003 14.4533 3.65336 14.6266 3.70003C14.8 3.75336 14.9333 3.89336 14.9733 4.06669C15.1 4.63336 15.1666 5.26669 15.1666 6.00002V10C15.1666 11.8467 14.78 13.0934 13.94 13.94C13.8466 14.0334 13.7066 14.0534 13.5866 14.0867ZM10.04 9.33336L13.5466 12.84C13.9666 12.1934 14.1666 11.2734 14.1666 10V6.00002C14.1666 5.72669 14.16 5.47336 14.14 5.23336L10.04 9.33336Z" fill="white"/>
<path d="M4.18 14.9866C4.14 14.9866 4.10668 14.98 4.06668 14.9733C1.86001 14.4667 0.833344 12.8866 0.833344 9.99998V5.99998C0.833344 2.37998 2.38001 0.833313 6.00001 0.833313H10C12.8867 0.833313 14.4667 1.85998 14.9733 4.06665C15.0133 4.23332 14.96 4.41332 14.84 4.53332L4.53334 14.84C4.44 14.9333 4.31334 14.9866 4.18 14.9866ZM6.00001 1.83331C2.92668 1.83331 1.83334 2.92665 1.83334 5.99998V9.99998C1.83334 12.3133 2.47335 13.4733 4.02668 13.9333L13.9267 4.03332C13.4734 2.47998 12.3067 1.83998 9.99334 1.83998H6.00001V1.83331Z" fill="white"/>
<path d="M9.99991 15.1667H5.99991C5.26658 15.1667 4.63992 15.1067 4.06658 14.9734C3.88658 14.9334 3.74657 14.8 3.69991 14.6267C3.64657 14.4534 3.69991 14.2667 3.82657 14.1334L8.97991 8.98002C9.17325 8.78669 9.49325 8.78669 9.68658 8.98002L13.9399 13.2334C14.0332 13.3267 14.0866 13.4534 14.0866 13.5867C14.0866 13.72 14.0332 13.8467 13.9399 13.94C13.0932 14.78 11.8466 15.1667 9.99991 15.1667ZM5.23325 14.14C5.47325 14.16 5.72658 14.1667 5.99991 14.1667H9.99991C11.2799 14.1667 12.1933 13.9667 12.8399 13.5467L9.33325 10.04L5.23325 14.14Z" fill="white"/>
<path d="M6.07995 8.87332C5.65995 8.87332 5.23994 8.71999 4.90661 8.40666C3.84661 7.39999 3.41996 6.29333 3.67329 5.21333C3.92663 4.10666 4.89328 3.35999 6.07995 3.35999C7.26662 3.35999 8.23329 4.10666 8.48663 5.21333C8.73329 6.29999 8.30662 7.39999 7.24662 8.40666C6.91995 8.71332 6.49995 8.87332 6.07995 8.87332ZM4.64662 5.43332C4.43329 6.33999 5.04662 7.15333 5.59995 7.67999C5.87328 7.93999 6.29328 7.93999 6.55995 7.67999C7.10662 7.15999 7.71995 6.34665 7.51328 5.43332C7.33328 4.63999 6.62662 4.35332 6.07995 4.35332C5.53328 4.35332 4.83329 4.63999 4.64662 5.43332Z" fill="white"/>
<path d="M6.09992 6.3268C5.73326 6.3268 5.43326 6.0268 5.43326 5.66014C5.43326 5.29347 5.72659 4.99347 6.09992 4.99347H6.1066C6.47326 4.99347 6.77326 5.29347 6.77326 5.66014C6.77326 6.0268 6.46659 6.3268 6.09992 6.3268Z" fill="white"/>
</svg>
