<svg width="32" height="32" viewBox="0 0 32 32" fill="none" xmlns="http://www.w3.org/2000/svg">
<path opacity="0.4" d="M27.4933 11.2666C26.0933 5.10665 20.72 2.33331 16 2.33331C16 2.33331 16 2.33331 15.9867 2.33331C11.28 2.33331 5.89334 5.09331 4.49334 11.2533C2.93334 18.1333 8.48 23.96 12.2933 27.6266C13.7067 28.9866 14.1867 29.6666 16 29.6666C17.8133 29.6666 18.2933 28.9866 19.6933 27.6266C23.5067 23.96 29.0533 18.1466 27.4933 11.2666Z" fill="#00B3F0"/>
<path d="M16 17.9467C18.3196 17.9467 20.2 16.0663 20.2 13.7467C20.2 11.4271 18.3196 9.54669 16 9.54669C13.6804 9.54669 11.8 11.4271 11.8 13.7467C11.8 16.0663 13.6804 17.9467 16 17.9467Z" fill="#00B3F0"/>
</svg>
