<svg width="16" height="16" viewBox="0 0 16 16" fill="none" xmlns="http://www.w3.org/2000/svg">
<path d="M9.48 14.4202C8.69334 14.4202 7.58 13.8669 6.7 11.2202L6.22 9.78025L4.78 9.30025C2.14 8.42025 1.58667 7.30691 1.58667 6.52025C1.58667 5.74025 2.14 4.62025 4.78 3.73358L10.44 1.84691C11.8533 1.37358 13.0333 1.51358 13.76 2.23358C14.4867 2.95358 14.6267 4.14025 14.1533 5.55358L12.2667 11.2136C11.38 13.8669 10.2667 14.4202 9.48 14.4202ZM5.09334 4.68691C3.24 5.30691 2.58 6.04025 2.58 6.52025C2.58 7.00025 3.24 7.73358 5.09334 8.34691L6.77334 8.90691C6.92 8.95358 7.04 9.07358 7.08667 9.22025L7.64667 10.9002C8.26 12.7536 9 13.4136 9.48 13.4136C9.96 13.4136 10.6933 12.7536 11.3133 10.9002L13.2 5.24025C13.54 4.21358 13.48 3.37358 13.0467 2.94025C12.6133 2.50691 11.7733 2.45358 10.7533 2.79358L5.09334 4.68691Z" fill="white"/>
<path d="M6.73997 9.60003C6.6133 9.60003 6.48664 9.55336 6.38664 9.45336C6.1933 9.26003 6.1933 8.94003 6.38664 8.74669L8.7733 6.35336C8.96664 6.16003 9.28664 6.16003 9.47997 6.35336C9.67331 6.54669 9.67331 6.86669 9.47997 7.06003L7.09331 9.45336C6.99997 9.55336 6.86664 9.60003 6.73997 9.60003Z" fill="white"/>
</svg>
