<svg width="25" height="24" viewBox="0 0 25 24" fill="none" xmlns="http://www.w3.org/2000/svg">
<path fill-rule="evenodd" clip-rule="evenodd" d="M12 2.75C7.16751 2.75 3.25 6.66751 3.25 11.5C3.25 16.3325 7.16751 20.25 12 20.25C16.8325 20.25 20.75 16.3325 20.75 11.5C20.75 6.66751 16.8325 2.75 12 2.75ZM1.75 11.5C1.75 5.83908 6.33908 1.25 12 1.25C17.6609 1.25 22.25 5.83908 22.25 11.5C22.25 17.1609 17.6609 21.75 12 21.75C6.33908 21.75 1.75 17.1609 1.75 11.5Z" fill="#ABABAB"/>
<path fill-rule="evenodd" clip-rule="evenodd" d="M19.9697 19.4697C20.2626 19.1768 20.7374 19.1768 21.0303 19.4697L23.0303 21.4697C23.3232 21.7626 23.3232 22.2374 23.0303 22.5303C22.7374 22.8232 22.2626 22.8232 21.9697 22.5303L19.9697 20.5303C19.6768 20.2374 19.6768 19.7626 19.9697 19.4697Z" fill="#ABABAB"/>
</svg>
